# xmcd
#
# Track frame offsets: 
#        150
#        26975
#        43730
#        70035
#        96437
#        111982
#        135787
#        157615
#
# Disc length: 2369 seconds
#
# Revision: 2
# Processed by: cddbd v1.5.1PL0 Copyright (c) Steve Scherf et al.
# Submitted via: ExactAudioCopy v0.95a4
#
DISCID=61093f08
DTITLE=Various Artist - Philly Ballads, Volume I
DYEAR=1984
DGENRE=R&B
TTITLE0=Teddy Pendergrass - Turn Off The Lights
TTITLE1=The O'Jays - Sunshine
TTITLE2=The Intruders - I Wanna Know Your Name
TTITLE3=The Stylistics - Hurry Up This Way Again
TTITLE4=Harold Melvin and The Blue Notes - If You Don't Know Me By Now
TTITLE5=Dee Dee Sharp - I'm Not In Love
TTITLE6=Jean Carn - Don't Let It Go To Your Head
TTITLE7=Lou Rawls - You'll Never Find Another Love Like Mine
EXTD=
EXTT0=
EXTT1=
EXTT2=
EXTT3=
EXTT4=
EXTT5=
EXTT6=
EXTT7=
PLAYORDER=
